<?xml version="1.0" encoding="UTF-8"?>
<svg version="1.1" xmlns="http://www.w3.org/2000/svg" width="600" height="600">
<path d="M0,0 L600,0 L600,600 L0,600 Z " fill="#FEFD00" transform="translate(0,0)"/>
<path d="M0,0 L600,0 L600,600 L0,600 Z M276,1 L246,5 L226,9 L197,18 L178,26 L157,36 L137,48 L123,58 L109,69 L95,81 L77,99 L68,110 L57,124 L45,142 L36,157 L25,180 L16,203 L9,226 L4,250 L1,276 L1,322 L3,343 L8,369 L16,396 L25,420 L34,439 L50,466 L64,485 L76,499 L87,511 L99,523 L110,532 L128,546 L147,558 L165,568 L189,579 L212,587 L239,594 L264,598 L276,599 L319,599 L336,598 L369,592 L396,584 L420,575 L439,566 L466,550 L485,536 L498,525 L510,514 L521,503 L530,492 L541,479 L553,461 L566,439 L575,420 L584,396 L592,369 L598,336 L599,320 L599,280 L596,250 L590,223 L582,197 L571,171 L561,152 L550,134 L539,119 L530,108 L518,94 L502,78 L491,69 L476,57 L461,47 L442,36 L426,28 L405,19 L380,11 L360,6 L332,2 L319,1 Z " fill="#FFFFFE" transform="translate(0,0)"/>
<path d="M0,0 L1,2 L-7,18 L-14,37 L-17,50 L-18,56 L-18,78 L-14,91 L-8,103 L2,114 L17,124 L16,129 L12,141 L11,147 L11,166 L15,178 L22,186 L32,191 L35,192 L49,193 L47,198 L40,209 L28,222 L19,230 L5,239 L-6,244 L-22,249 L-32,251 L-45,251 L-40,246 L-26,232 L-15,218 L-8,207 L-2,194 L-1,190 L-1,180 L-5,173 L-13,169 L-25,165 L-33,154 L-41,137 L-46,121 L-49,106 L-50,93 L-50,65 L-46,50 L-38,34 L-30,24 L-19,13 L-2,1 Z " fill="#FE0300" transform="translate(210,200)"/>
<path d="M0,0 L9,5 L22,15 L34,27 L43,41 L48,53 L51,65 L51,93 L50,106 L46,124 L40,142 L31,159 L26,165 L22,167 L13,169 L5,174 L2,180 L2,190 L8,206 L16,218 L24,228 L33,238 L31,240 L28,236 L25,235 L16,235 L12,236 L10,235 L1,235 L-4,238 L-9,236 L-6,231 L-6,225 L-10,221 L-19,221 L-23,224 L-27,222 L-27,220 L-22,215 L-22,209 L-25,206 L-28,205 L-35,205 L-41,206 L-48,195 L-48,193 L-30,191 L-20,185 L-14,178 L-10,166 L-10,147 L-13,134 L-16,127 L-15,123 L-4,116 L5,108 L12,98 L18,83 L19,78 L19,58 L17,44 L9,20 L1,4 Z " fill="#FE0300" transform="translate(389,200)"/>
<path d="M0,0 L7,0 L12,3 L14,5 L14,11 L10,16 L8,16 L10,19 L14,17 L16,16 L25,16 L30,21 L30,27 L27,32 L31,33 L36,30 L45,30 L49,31 L51,30 L60,30 L65,33 L67,35 L75,27 L83,22 L90,23 L91,25 L91,31 L94,32 L91,33 L92,39 L90,41 L84,41 L83,54 L90,54 L89,59 L86,62 L88,64 L83,66 L72,66 L68,63 L63,65 L60,66 L49,66 L44,61 L39,66 L25,67 L25,64 L18,67 L12,67 L6,63 L4,60 L-3,66 L-13,66 L-17,62 L-19,59 L-26,68 L-33,73 L-39,75 L-54,75 L-60,71 L-65,65 L-66,62 L-66,51 L-60,42 L-52,37 L-47,36 L-48,28 L-43,20 L-35,14 L-26,11 L-14,11 L-12,7 L-3,1 Z " fill="#F8FAF5" transform="translate(354,404)"/>
<path d="M0,0 L1,0 L1,30 L-2,46 L-6,61 L-14,84 L-25,110 L-36,137 L-42,158 L-45,170 L-47,187 L-47,209 L-45,226 L-44,229 L-44,241 L-47,238 L-55,224 L-64,207 L-72,187 L-78,167 L-80,156 L-80,135 L-76,118 L-69,101 L-57,82 L-47,69 L-36,55 L-24,39 L-14,24 L-5,9 Z " fill="#FF0200" transform="translate(188,45)"/>
<path d="M0,0 L3,3 L11,18 L25,39 L38,56 L50,71 L60,85 L68,98 L74,110 L78,121 L81,135 L81,156 L76,178 L69,198 L58,221 L46,241 L45,241 L45,229 L47,217 L48,209 L48,187 L45,166 L39,143 L30,119 L19,94 L10,70 L5,55 L2,43 L0,30 Z " fill="#FF0200" transform="translate(411,45)"/>
<path d="M0,0 L5,1 L12,7 L28,13 L36,15 L54,16 L53,20 L50,24 L45,35 L42,44 L38,63 L37,74 L36,153 L34,155 L24,155 L22,153 L22,79 L19,79 L16,76 L8,69 L1,61 L-4,51 L-6,46 L-7,39 L-7,21 L-6,15 L-4,15 L-3,7 Z " fill="#F618F0" transform="translate(251,320)"/>
<path d="M0,0 L4,2 L14,20 L22,31 L33,43 L46,56 L57,65 L74,78 L97,94 L117,108 L125,115 L125,117 L91,117 L72,112 L56,104 L44,95 L34,86 L23,73 L12,55 L4,38 L-2,17 L-2,3 Z " fill="#FF0300" transform="translate(27,228)"/>
<path d="M0,0 L3,1 L4,3 L4,17 L-2,38 L-12,59 L-22,74 L-34,88 L-44,97 L-58,106 L-68,111 L-85,116 L-90,117 L-123,117 L-121,113 L-111,105 L-95,94 L-75,80 L-54,64 L-40,52 L-23,35 L-14,23 L-6,9 L-1,1 Z " fill="#FF0300" transform="translate(571,228)"/>
<path d="M0,0 L12,0 L18,4 L18,6 L28,0 L36,0 L41,1 L43,0 L50,0 L54,2 L54,4 L62,0 L73,0 L79,3 L82,6 L82,13 L80,15 L80,27 L76,33 L68,37 L57,37 L49,33 L47,30 L47,22 L39,20 L35,32 L30,36 L22,37 L18,38 L16,36 L15,32 L7,36 L4,37 L-5,37 L-12,33 L-16,33 L-22,32 L-17,28 L-16,24 L-23,25 L-24,24 L-24,17 L-22,11 L-15,9 L-15,3 L-11,3 L-11,5 Z " fill="#FEF5E7" transform="translate(460,434)"/>
<path d="M0,0 L5,0 L9,10 L12,20 L12,33 L11,43 L8,51 L4,62 L-1,63 L-2,67 L-12,76 L-22,82 L-35,86 L-43,86 L-43,62 L-41,52 L-37,42 L-35,33 L-31,29 L-29,24 L-25,18 L-14,9 L-6,4 L-4,4 L-4,2 Z " fill="#64E1F3" transform="translate(344,321)"/>
<path d="M0,0 L3,4 L11,20 L23,43 L40,71 L51,89 L72,120 L74,124 L67,123 L53,119 L39,112 L30,105 L20,95 L10,80 L3,64 L-2,47 L-3,41 L-3,16 L-1,2 Z " fill="#FF0400" transform="translate(66,177)"/>
<path d="M0,0 L2,2 L4,12 L4,41 L1,55 L-6,74 L-12,85 L-21,97 L-31,107 L-42,114 L-53,119 L-66,123 L-73,124 L-69,117 L-56,98 L-40,73 L-24,46 L-11,22 L-3,6 Z " fill="#FF0400" transform="translate(533,177)"/>
<path d="M0,0 L6,1 L10,3 L10,10 L8,18 L17,5 L22,0 L27,1 L32,5 L32,12 L30,20 L37,10 L46,0 L52,2 L55,5 L55,15 L52,33 L47,54 L52,54 L51,62 L47,67 L45,68 L39,68 L34,62 L33,59 L33,50 L38,29 L42,18 L42,16 L33,28 L26,42 L22,55 L19,68 L14,66 L9,62 L9,52 L15,28 L19,16 L10,28 L4,40 L1,49 L-3,68 L-9,66 L-13,62 L-13,49 L-9,28 L-3,7 Z " fill="#FF0700" transform="translate(304,129)"/>
<path d="M0,0 L1,0 L1,20 L-2,36 L-9,57 L-17,73 L-26,87 L-35,99 L-46,113 L-56,126 L-68,144 L-69,144 L-69,132 L-66,108 L-61,92 L-53,78 L-42,65 L-28,47 L-12,23 Z " fill="#FF0400" transform="translate(225,100)"/>
<path d="M0,0 L3,4 L13,23 L27,44 L40,61 L49,72 L57,83 L63,95 L67,108 L70,132 L70,144 L66,139 L56,125 L46,112 L35,98 L22,80 L12,62 L6,45 L1,27 L0,20 Z " fill="#FF0400" transform="translate(374,100)"/>
<path d="M0,0 L1,2 L-5,22 L-10,34 L-16,44 L-25,54 L-35,62 L-49,68 L-59,71 L-72,73 L-111,73 L-127,70 L-135,66 L-137,64 L-136,59 L-131,56 L-93,55 L-70,52 L-54,46 L-41,39 L-28,30 L-16,19 L-6,8 Z " fill="#FF0500" transform="translate(561,307)"/>
<path d="M0,0 L5,5 L14,16 L25,27 L37,36 L51,44 L62,49 L75,53 L94,55 L130,56 L137,59 L138,64 L133,68 L118,72 L111,73 L72,73 L52,69 L40,64 L29,57 L19,47 L12,36 L7,25 L2,10 Z " fill="#FF0400" transform="translate(38,307)"/>
<path d="M0,0 L7,0 L10,2 L10,7 L8,9 L3,9 L3,7 L-4,9 L-5,11 L3,13 L7,17 L7,25 L2,31 L-2,33 L0,35 L0,44 L5,45 L4,49 L1,54 L-3,58 L-11,59 L-14,56 L-14,46 L-13,44 L-13,37 L-16,37 L-22,53 L-28,61 L-35,66 L-41,68 L-52,68 L-58,64 L-62,59 L-63,57 L-63,49 L-59,42 L-50,36 L-39,36 L-39,44 L-33,44 L-28,40 L-22,27 L-18,18 L-24,21 L-25,25 L-23,26 L-25,31 L-31,35 L-39,35 L-44,30 L-44,23 L-37,15 L-28,11 L-22,10 L-12,10 L-10,6 L-3,1 Z " fill="#0606FE" transform="translate(354,408)"/>
<path d="M0,0 L5,2 L9,6 L13,0 L21,1 L26,6 L27,13 L30,13 L29,22 L26,41 L21,53 L14,62 L5,68 L-4,68 L-10,64 L-14,59 L-18,49 L-18,36 L-16,25 L-11,13 L-4,4 Z " fill="#FF0600" transform="translate(257,129)"/>
<path d="M0,0 L8,0 L18,5 L21,6 L28,2 L38,2 L44,7 L45,9 L45,17 L41,22 L39,23 L31,23 L25,20 L28,26 L37,34 L39,38 L39,53 L33,61 L28,65 L23,67 L12,67 L4,63 L0,58 L-2,53 L-2,43 L3,35 L8,32 L14,32 L20,36 L20,41 L19,42 L19,47 L24,48 L25,47 L25,40 L15,28 L14,21 L15,13 L9,14 L9,19 L12,21 L12,25 L8,27 L0,27 L-6,22 L-7,19 L-7,8 L-2,1 Z " fill="#FF0700" transform="translate(217,213)"/>
<path d="M0,0 L4,0 L3,4 L-3,12 L-10,18 L-24,25 L-34,28 L-45,30 L-79,30 L-97,26 L-113,19 L-130,10 L-137,7 L-134,6 L-122,8 L-109,9 L-61,9 L-41,7 L-5,1 Z " fill="#FF0500" transform="translate(185,380)"/>
<path d="M0,0 L10,1 L31,5 L53,8 L67,9 L111,9 L131,7 L141,6 L139,8 L116,19 L106,24 L93,28 L83,30 L51,30 L39,28 L26,24 L14,18 L4,9 L0,3 Z " fill="#FF0500" transform="translate(411,380)"/>
<path d="M0,0 L7,0 L12,3 L14,5 L14,11 L10,16 L8,16 L10,19 L14,17 L16,16 L25,16 L30,21 L30,27 L27,31 L24,30 L25,29 L25,21 L18,20 L14,23 L14,30 L20,31 L17,34 L11,37 L10,48 L9,60 L11,62 L18,62 L24,60 L25,64 L18,67 L12,67 L6,63 L4,60 L-3,66 L-13,66 L-17,62 L-19,59 L-26,68 L-33,73 L-39,75 L-54,75 L-60,71 L-65,65 L-66,62 L-66,51 L-60,42 L-52,37 L-47,36 L-48,28 L-43,20 L-35,14 L-26,11 L-14,11 L-12,7 L-3,1 Z M0,4 L-8,8 L-12,12 L-12,14 L-22,14 L-31,16 L-39,21 L-44,27 L-44,34 L-39,39 L-31,39 L-25,35 L-23,30 L-25,29 L-24,25 L-18,22 L-27,42 L-31,47 L-33,48 L-39,48 L-39,40 L-50,40 L-59,46 L-63,53 L-63,61 L-59,67 L-54,71 L-52,72 L-41,72 L-32,68 L-25,62 L-19,50 L-16,41 L-13,41 L-13,48 L-14,50 L-14,60 L-11,63 L-3,62 L3,56 L5,52 L4,48 L0,48 L0,39 L-2,37 L4,33 L7,29 L7,21 L1,16 L-5,15 L-2,12 L3,11 L3,13 L8,13 L10,11 L10,6 L7,4 Z " fill="#F4F4F1" transform="translate(354,404)"/>
<path d="M0,0 L29,0 L29,2 L33,1 L42,5 L42,7 L44,7 L44,9 L48,10 L48,12 L52,13 L50,17 L46,19 L42,19 L42,22 L35,25 L30,25 L30,27 L23,28 L23,30 L19,29 L2,29 L2,27 L-3,27 L-3,25 L-10,24 L-18,20 L-22,16 L-22,12 L-17,8 L-14,8 L-13,4 Z " fill="#FAE30C" transform="translate(286,295)"/>
<path d="M0,0 L2,0 L-1,9 L-7,20 L-14,28 L-23,34 L-36,40 L-48,43 L-62,45 L-79,45 L-74,41 L-50,28 L-27,15 Z " fill="#FF0800" transform="translate(186,399)"/>
<path d="M0,0 L6,0 L7,1 L6,15 L5,23 L10,20 L15,20 L18,23 L17,44 L21,44 L20,49 L16,53 L9,54 L6,51 L6,38 L7,32 L4,33 L2,40 L0,50 L-2,53 L-10,54 L-9,42 L-6,25 L-4,6 L-2,2 Z " fill="#FF0900" transform="translate(353,217)"/>
<path d="M0,0 L5,0 L7,2 L6,13 L5,18 L5,26 L12,20 L18,21 L20,24 L20,30 L17,34 L12,33 L10,30 L9,34 L13,42 L15,44 L20,45 L19,49 L14,53 L8,54 L4,49 L2,43 L1,43 L-1,51 L-3,53 L-10,53 L-9,38 L-6,23 L-5,5 Z " fill="#FF0B00" transform="translate(302,217)"/>
<path d="M0,0 L5,2 L31,16 L54,29 L70,38 L68,41 L66,41 L62,37 L60,36 L48,36 L40,40 L37,40 L33,36 L32,28 L25,28 L19,30 L11,23 L5,14 L0,2 Z " fill="#FE0701" transform="translate(412,399)"/>
<path d="M0,0 L6,0 L9,3 L15,0 L21,0 L25,3 L25,11 L23,22 L27,22 L26,27 L21,30 L13,30 L10,27 L10,18 L11,12 L7,13 L3,27 L-1,30 L-10,31 L-8,19 L-6,11 L-6,4 Z " fill="#9C0AFE" transform="translate(392,437)"/>
<path d="M0,0 L7,1 L11,2 L12,1 L17,1 L17,9 L15,24 L20,24 L19,29 L14,33 L8,34 L5,31 L4,27 L-2,34 L-7,33 L-10,29 L-10,14 L-6,6 Z " fill="#FF0800" transform="translate(271,237)"/>
<path d="M0,0 L13,0 L17,3 L17,11 L11,16 L2,18 L3,20 L11,19 L15,17 L18,17 L17,22 L11,27 L6,29 L-5,29 L-11,24 L-12,21 L-12,12 L-6,4 Z " fill="#FE0808" transform="translate(459,438)"/>
<path d="M0,0 L7,1 L8,2 L8,10 L8,12 L12,16 L11,20 L11,27 L10,32 L4,33 L4,35 L8,36 L7,41 L0,44 L-7,44 L-10,41 L-9,29 L-8,18 L-1,14 L1,13 L-4,11 L-5,4 Z " fill="#09FE09" transform="translate(372,423)"/>
<path d="M0,0 L13,0 L18,4 L17,8 L16,9 L11,9 L8,6 L6,7 L15,14 L16,16 L16,22 L11,27 L8,29 L-5,29 L-10,26 L-11,20 L-9,17 L-4,17 L2,22 L5,23 L4,20 L-5,13 L-6,6 L-1,1 Z " fill="#FF0AFE" transform="translate(521,438)"/>
<path d="M0,0 L1,0 L3,10 L5,14 L8,15 L7,25 L2,37 L-4,44 L-7,45 L-11,39 L-12,36 L-12,24 L-9,12 L-3,3 Z " fill="#FFF600" transform="translate(264,141)"/>
<path d="M0,0 L4,0 L3,8 L8,8 L9,13 L7,15 L1,15 L0,28 L7,28 L6,33 L1,36 L-1,37 L-9,37 L-14,32 L-14,25 L-12,15 L-13,11 L-6,4 Z " fill="#07CDFE" transform="translate(437,430)"/>
<path d="M0,0 L8,0 L10,4 L15,0 L22,0 L24,1 L24,10 L19,14 L14,13 L12,10 L7,16 L4,26 L2,28 L-8,29 L-7,20 L-5,11 L-5,3 Z " fill="#FFCD08" transform="translate(488,438)"/>
<path d="M0,0 L11,0 L17,3 L20,6 L20,13 L18,15 L18,27 L14,33 L6,37 L-5,37 L-13,33 L-15,30 L-15,22 L-21,20 L-21,18 L-23,17 L-15,17 L-11,14 L-8,5 L-6,5 L-6,3 Z M-1,4 L-6,8 L-7,15 L-3,20 L3,24 L4,27 L-1,24 L-5,21 L-10,21 L-12,24 L-11,30 L-6,33 L7,33 L13,29 L15,26 L15,20 L11,15 L5,11 L8,11 L10,13 L15,13 L17,11 L16,7 L12,4 Z " fill="#FFF9F1" transform="translate(522,434)"/>
<path d="M0,0 L3,0 L2,10 L7,11 L6,17 L5,18 L0,18 L0,33 L6,33 L5,38 L0,42 L-8,42 L-12,37 L-12,29 L-10,18 L-11,13 L-4,4 Z " fill="#FF0800" transform="translate(336,228)"/>
<path d="M0,0 L5,1 L6,2 L5,14 L4,24 L9,24 L8,29 L3,33 L-3,34 L-7,30 L-7,22 L-6,18 L-5,4 Z " fill="#FF0D00" transform="translate(383,237)"/>
<path d="M0,0 L7,1 L8,2 L8,10 L8,12 L12,16 L11,20 L11,27 L10,32 L3,33 L4,25 L5,16 L-1,15 L1,13 L-4,11 L-5,4 Z " fill="#F3FFEA" transform="translate(372,423)"/>
<path d="M0,0 L9,0 L13,1 L15,0 L24,0 L29,3 L31,6 L32,16 L30,21 L28,21 L28,13 L27,13 L26,6 L23,4 L17,4 L10,7 L8,4 L2,4 L-3,7 L-3,14 L-4,19 L-7,17 L-8,6 Z " fill="#FAEEF3" transform="translate(390,434)"/>
<path d="M0,0 L4,0 L4,2 L8,3 L4,7 L2,25 L-1,27 L-2,30 L-7,29 L-2,25 L-1,21 L-8,22 L-9,21 L-9,14 L-7,8 L0,6 Z " fill="#F7FAF3" transform="translate(445,437)"/>
<path d="M0,0 L3,0 L0,9 L-7,23 L-12,27 L-18,27 L-19,22 L-18,18 L-26,18 L-26,17 L-18,16 L-10,16 L-4,12 L-2,8 L-5,7 L-4,3 Z " fill="#E6E6FE" transform="translate(333,426)"/>
<path d="M0,0 L4,1 L4,8 L3,10 L3,20 L5,22 L13,21 L17,17 L19,18 L12,26 L3,26 L-1,22 L-3,19 L-9,22 L-7,17 L-1,1 Z " fill="#EEEEFA" transform="translate(338,444)"/>
<path d="M0,0 L4,1 L3,7 L3,16 L5,18 L5,21 L1,20 L-2,17 L-6,19 L-9,18 L-6,16 L-2,2 Z " fill="#F8EFFD" transform="translate(400,448)"/>
<path d="M0,0 L7,1 L8,2 L8,8 L3,12 L-4,11 L-5,4 Z " fill="#0DFE0D" transform="translate(372,423)"/>
<path d="M0,0 L6,1 L7,3 L7,9 L3,13 L-2,13 L-4,11 L-4,5 Z " fill="#FF0D00" transform="translate(384,221)"/>
<path d="M0,0 L7,1 L8,3 L8,9 L11,10 L8,12 L3,12 L4,4 L-3,7 L-11,14 L-12,11 L-4,2 Z " fill="#F0F1F3" transform="translate(437,426)"/>
<path d="M0,0 L9,0 L14,3 L16,6 L17,16 L15,21 L13,21 L13,13 L12,13 L11,6 L8,4 L-2,4 Z " fill="#FBEFF5" transform="translate(405,434)"/>
<path d="M0,0 L7,0 L12,3 L14,5 L14,8 L10,10 L9,6 L7,5 L0,5 L-9,9 L-8,4 Z " fill="#F7E3E6" transform="translate(354,404)"/>
<path d="M0,0 L5,5 L11,12 L11,19 L9,21 L4,20 L3,19 L3,14 L4,13 L4,8 L-1,4 L1,4 Z " fill="#FFF400" transform="translate(232,241)"/>
<path d="M0,0 L2,4 L0,7 L-2,9 L-5,19 L-10,23 L-16,23 L-12,21 L-18,20 L-18,19 L-10,18 L-7,12 L-5,5 Z " fill="#FFFAE0" transform="translate(500,447)"/>
<path d="M0,0 L52,0 L54,3 L35,2 L0,1 Z " fill="#FFFFC3" transform="translate(284,0)"/>
<path d="M0,0 L2,0 L1,3 L-52,3 L-52,2 L-17,1 Z " fill="#FFFFC9" transform="translate(336,597)"/>
<path d="M0,0 L8,0 L4,2 L10,3 L10,4 L-1,5 L-9,11 L-12,14 L-11,9 L-8,5 L-3,1 Z " fill="#FFDCDC" transform="translate(460,434)"/>
<path d="M0,0 L4,2 L5,6 L2,11 L-4,12 L-1,2 Z " fill="#E0E0FF" transform="translate(344,425)"/>
<path d="M0,0 L4,2 L5,3 L13,3 L12,12 L10,13 L6,7 L0,3 Z " fill="#FFF6F9" transform="translate(527,443)"/>
<path d="M0,0 L4,1 L8,3 L5,9 L-1,9 L-2,4 Z " fill="#F9F9D2" transform="translate(316,444)"/>
<path d="M0,0 L4,2 L5,8 L4,13 L2,10 L0,11 L-2,10 L-3,3 Z " fill="#F5FFE2" transform="translate(360,439)"/>
<path d="M0,0 L6,0 L6,8 L4,8 L3,11 L3,8 L-1,6 L-1,1 Z " fill="#FFDD00" transform="translate(226,226)"/>
<path d="M0,0 L2,0 L2,2 L-5,3 L-5,5 L-9,4 L-26,4 L-26,1 L-5,1 Z " fill="#FBF11C" transform="translate(314,320)"/>
<path d="M0,0 L3,1 L-1,4 L-15,5 L-11,1 Z " fill="#FCFBF4" transform="translate(394,466)"/>
<path d="M0,0 L2,2 L-5,10 L-12,14 L-10,10 L-4,3 Z " fill="#F7F7F3" transform="translate(332,463)"/>
<path d="M0,0 L4,2 L3,7 L3,14 L2,19 L-1,19 L0,2 Z " fill="#FDFD24" transform="translate(380,436)"/>
<path d="M0,0 L1,0 L1,7 L0,9 L2,10 L2,12 L2,17 L1,13 L-3,13 L-3,6 L-1,1 Z " fill="#F6E9FC" transform="translate(418,446)"/>
<path d="M0,0 L8,1 L4,3 L-5,10 L-8,12 L-7,8 Z " fill="#EFF5F6" transform="translate(433,428)"/>
<path d="M0,0 L4,0 L4,3 L-1,5 L-10,5 L-6,3 L-9,1 Z " fill="#FFECDC" transform="translate(465,466)"/>
<path d="M0,0 L5,0 L8,7 L8,10 L6,10 L6,6 L3,6 L2,9 L2,3 L-4,3 Z " fill="#8DEBC5" transform="translate(344,321)"/>
<path d="M0,0 L2,1 L2,3 L4,2 L12,2 L11,4 L4,7 L0,6 L-1,3 Z " fill="#FFFDF4" transform="translate(477,465)"/>
<path d="M0,0 L1,0 L2,10 L0,15 L-2,15 L-2,7 L-3,5 Z " fill="#FEBF89" transform="translate(420,440)"/>
<path d="M0,0 L1,4 L2,10 L-2,8 L-8,7 L-4,3 Z " fill="#E6FDE1" transform="translate(379,431)"/>
<path d="M0,0 L20,0 L20,1 L4,3 L-2,3 Z " fill="#FFFFE3" transform="translate(264,0)"/>
<path d="M0,0 L9,6 L9,9 L5,8 L0,4 L-3,2 L0,2 Z " fill="#FFE6FE" transform="translate(517,452)"/>
<path d="M0,0 L4,1 L7,4 L7,7 L3,9 L2,5 L-5,3 L-5,2 L0,1 Z " fill="#E8DDF3" transform="translate(361,405)"/>
<path d="M0,0 L3,0 L3,7 L-1,9 L-2,8 L-1,1 Z " fill="#FFDA00" transform="translate(274,246)"/>
<path d="M0,0 L2,4 L-5,7 L-11,7 L-7,4 L-5,4 L-5,2 Z " fill="#F0FED4" transform="translate(377,464)"/>
<path d="M0,0 L2,1 L-1,10 L-3,11 L-4,5 Z " fill="#F9F5FC" transform="translate(382,459)"/>
<path d="M0,0 L4,1 L0,3 L-11,5 L-11,7 L-13,7 L-13,4 Z " fill="#FBF013" transform="translate(286,295)"/>
<path d="M0,0 L12,0 L11,4 L8,4 L8,3 L0,2 Z " fill="#F558D5" transform="translate(293,336)"/>
<path d="M0,0 L4,0 L4,6 L-1,7 Z " fill="#FEFE3A" transform="translate(440,449)"/>
<path d="M0,0 L0,3 L-1,6 L-7,11 L-9,13 L-8,9 L-4,3 Z " fill="#B2F296" transform="translate(323,336)"/>
<path d="M0,0 L2,1 L-3,6 L-5,11 L-8,10 L-6,6 Z " fill="#FAFAEE" transform="translate(429,431)"/>
<path d="M0,0 L2,0 L1,5 L-8,12 L-10,11 L-1,3 Z " fill="#CBF779" transform="translate(343,384)"/>
<path d="M0,0 L4,2 L9,4 L7,5 L6,7 L0,3 Z " fill="#FFDFFF" transform="translate(527,443)"/>
<path d="M0,0 L5,5 L7,8 L5,12 L3,7 L-1,4 L1,4 Z " fill="#FFC600" transform="translate(232,241)"/>
<path d="M0,0 L2,4 L2,10 L-1,9 L-2,2 Z " fill="#FDFE12" transform="translate(359,440)"/>
<path d="M0,0 L11,2 L11,3 L0,4 L-3,5 L-1,1 Z " fill="#FFCEFD" transform="translate(521,435)"/>
<path d="M0,0 L5,0 L6,4 L-1,3 Z " fill="#FFD900" transform="translate(247,224)"/>
<path d="M0,0 L2,0 L0,4 L-7,8 L-5,4 Z " fill="#FDFDE8" transform="translate(327,469)"/>
<path d="M0,0 L6,2 L6,5 L3,6 L-1,1 Z " fill="#FF2615" transform="translate(475,434)"/>
<path d="M0,0 L3,1 L-5,8 L-5,5 Z " fill="#FDFDEB" transform="translate(356,462)"/>
<path d="M0,0 L2,0 L1,5 L-2,7 L-2,3 L-4,1 Z " fill="#1FD3FE" transform="translate(442,458)"/>
<path d="M0,0 L1,0 L1,6 L-3,7 L-3,2 Z " fill="#EAFFE2" transform="translate(378,449)"/>
<path d="M0,0 L5,1 L6,3 L1,5 L-1,6 Z " fill="#F654CE" transform="translate(251,320)"/>
<path d="M0,0 L1,0 L2,5 L4,7 L0,12 Z " fill="#FF2500" transform="translate(156,232)"/>
<path d="M0,0 L3,0 L2,4 L-3,5 L-1,1 Z " fill="#FFD6D6" transform="translate(464,444)"/>
<path d="M0,0 L1,3 L-1,8 L-4,8 L-6,7 Z " fill="#FFC300" transform="translate(346,144)"/>
<path d="M0,0 L1,2 L-1,7 L-6,9 L-4,5 Z " fill="#FFE100" transform="translate(323,144)"/>
<path d="M0,0 L3,1 L-1,4 L-7,4 L-3,1 Z " fill="#FDFCE4" transform="translate(394,466)"/>
<path d="M0,0 L4,4 L4,6 L2,6 L2,9 L-1,8 L1,8 Z " fill="#FDFDC3" transform="translate(306,432)"/>
<path d="M0,0 L1,2 L3,3 L-1,10 L-2,6 Z " fill="#FFCA00" transform="translate(313,139)"/>
<path d="M0,0 L7,0 L4,3 L-1,3 Z " fill="#F9FFF4" transform="translate(365,467)"/>
<path d="M0,0 L3,0 L4,6 L1,6 Z " fill="#FFFBFA" transform="translate(476,441)"/>
<path d="M0,0 L6,1 L2,3 L-3,6 L-2,2 Z " fill="#D5F5FD" transform="translate(435,428)"/>
<path d="M0,0 L1,0 L1,7 L3,7 L1,12 L0,12 Z " fill="#FF2E00" transform="translate(456,274)"/>
<path d="M0,0 L2,2 L-1,7 L-6,6 L-1,2 Z " fill="#E3F8FD" transform="translate(444,460)"/>
<path d="M0,0 L4,1 L4,5 L1,5 L-2,1 Z " fill="#F62AE3" transform="translate(269,394)"/>
</svg>
